<?xml version="1.0" encoding="utf-8"?>
<!-- Generator: Adobe Illustrator 21.0.0, SVG Export Plug-In . SVG Version: 6.00 Build 0)  -->
<svg version="1.1" id="Layer_1" xmlns="http://www.w3.org/2000/svg" xmlns:xlink="http://www.w3.org/1999/xlink" x="0px" y="0px"
	 viewBox="0 0 15 13" style="enable-background:new 0 0 15 13;" xml:space="preserve">
<style type="text/css">
	.st0{fill:#FFFFFF;}
</style>
<path id="calendar" class="st0" d="M87.8,14.8h-125c-2.5,0-4.6,0-4.7,0.1c0,0,0,0,0,0v2.4c0,0.1,2.1,0.1,4.6,0.1c0,0,0.1,0,0.1,0
	h23.5v0.1c0.2,0.1,2.5,0.1,5.1,0.1c2.3,0,4.2,0,4.4-0.1v-0.1h58.2v0.1c0.2,0.1,2.5,0.1,5.1,0.1c2.3,0,4.2,0,4.4-0.1v-0.1h24.3
	c2.5,0,4.6,0,4.7-0.1c0,0,0,0,0,0v-2.4C92.3,14.9,90.2,14.8,87.8,14.8z M83,17.3H63.4v-0.1c-0.2-0.1-2.5-0.1-5.1-0.1
	c-2.3,0-4.2,0-4.4,0.1v0.1H-4.2v-0.1c-0.2-0.1-2.5-0.1-5.1-0.1c-2.3,0-4.2,0-4.4,0.1v0.1h-18.9V17H83V17.3L83,17.3z M83,16.8H-32.5
	V15H83V16.8z M-9,16.3h68.3c2.5,0,4.7,0,5-0.1c0.3-0.1-1.5-0.1-3.9-0.1c-0.4,0-0.7,0-1.1,0H-9c-2.5,0-4.7,0-4.9,0.1
	c-0.3,0.1,1.5,0.1,4,0.1C-9.6,16.3-9.3,16.3-9,16.3L-9,16.3z M25.2,15.7h34.1c2.5,0,4.7,0,4.9-0.1c0.3-0.1-1.5-0.1-4-0.1
	c-0.3,0-0.7,0-1,0H25.2c-2.5,0-4.6,0-4.8,0.1c-0.2,0.1,1.6,0.1,4.1,0.1C24.7,15.7,24.9,15.7,25.2,15.7L25.2,15.7z"/>
</svg>
