<?xml version="1.0" encoding="utf-8"?>
<!-- Generator: Adobe Illustrator 24.0.2, SVG Export Plug-In . SVG Version: 6.00 Build 0)  -->
<svg version="1.1" id="Layer_1" xmlns="http://www.w3.org/2000/svg" xmlns:xlink="http://www.w3.org/1999/xlink" x="0px" y="0px"
	 viewBox="0 0 15 13" style="enable-background:new 0 0 15 13;" xml:space="preserve">
<style type="text/css">
	.st0{fill-rule:evenodd;clip-rule:evenodd;fill:#FFFFFF;}
</style>
<path id="calendar" class="st0" d="M0.5,13h13.9c0.3,0,0.5-0.2,0.5-0.5l0,0V1.4c0-0.3-0.2-0.5-0.5-0.5l0,0h-2.6V0.5
	c0-0.3-0.3-0.5-0.6-0.5s-0.5,0.2-0.5,0.5v0.4H4.3V0.5C4.3,0.2,4,0,3.7,0C3.5,0,3.3,0.2,3.2,0.5v0.4H0.5C0.2,0.9,0,1.1,0,1.4l0,0
	v11.1C0,12.8,0.3,13,0.5,13z M1.1,1.9h2.2v0.3c0,0.3,0.3,0.5,0.6,0.5s0.5-0.2,0.5-0.5V1.9h6.5v0.3c0,0.3,0.3,0.5,0.6,0.5
	S12,2.5,12,2.2V1.9h2v1.3H1.1V1.9L1.1,1.9z M1.1,4.2H14V12H1.1V4.2z M11.3,6.5H3.7c-0.3,0-0.5,0.2-0.6,0.4c0,0.3,0.2,0.5,0.4,0.6
	h0.1h7.6c0.3,0,0.5-0.2,0.5-0.4C11.7,6.8,11.5,6.6,11.3,6.5C11.4,6.5,11.4,6.5,11.3,6.5L11.3,6.5z M7.5,8.9H3.7
	C3.4,8.8,3.2,9,3.1,9.3c0,0.3,0.2,0.5,0.4,0.6h0.1h3.8c0.3,0,0.5-0.2,0.5-0.5C8.1,9.1,7.9,8.9,7.5,8.9C7.6,8.9,7.5,8.9,7.5,8.9
	L7.5,8.9z"/>
</svg>
