<svg xmlns="http://www.w3.org/2000/svg" width="15" height="15" viewBox="0 0 15 15">
  <defs>
    <style>
      .cls-1 {
        fill: #9d9d9d;
        fill-rule: evenodd;
      }
    </style>
  </defs>
  <path id="Forma_1" data-name="Forma 1" class="cls-1" d="M921.843,1061.97h-4.687a0.47,0.47,0,0,0,0,.94h4.687A0.47,0.47,0,0,0,921.843,1061.97Zm0.937-2.81h-6.561a0.465,0.465,0,1,0,0,.93h6.561A0.465,0.465,0,1,0,922.78,1059.16ZM919.5,1054c-4.141,0-7.5,2.94-7.5,6.56a6.283,6.283,0,0,0,2.812,5.12V1069l3.285-1.99a9.2,9.2,0,0,0,1.4.11c4.141,0,7.5-2.93,7.5-6.56S923.641,1054,919.5,1054Zm0,12.19a7.463,7.463,0,0,1-1.584-.18l-2.207,1.33,0.03-2.17a5.44,5.44,0,0,1-2.8-4.61c0-3.1,2.938-5.62,6.562-5.62s6.561,2.52,6.561,5.62S923.123,1066.19,919.5,1066.19Z" transform="translate(-912 -1054)"/>
</svg>
