<svg xmlns="http://www.w3.org/2000/svg" width="13" height="15" viewBox="0 0 13 15">
  <defs>
    <style>
      .cls-1 {
        fill: #fff;
        fill-rule: evenodd;
      }
    </style>
  </defs>
  <path id="user" class="cls-1" d="M589.726,338.082h0.1a2.948,2.948,0,0,0,2.231-.948,5.6,5.6,0,0,0,.994-3.879,3.16,3.16,0,0,0-1.535-2.818,3.583,3.583,0,0,0-1.7-.438h-0.053a3.574,3.574,0,0,0-1.7.426,3.161,3.161,0,0,0-1.554,2.83,5.6,5.6,0,0,0,.994,3.879A2.933,2.933,0,0,0,589.726,338.082Zm-2.377-4.75c0-.009,0-0.018,0-0.025a2.284,2.284,0,0,1,2.4-2.466h0.038a2.3,2.3,0,0,1,2.406,2.466,0.061,0.061,0,0,0,0,.025,4.851,4.851,0,0,1-.782,3.247,2.092,2.092,0,0,1-1.63.664h-0.031a2.084,2.084,0,0,1-1.627-.664A4.876,4.876,0,0,1,587.349,333.332Zm8.931,8.583v-0.009c0-.025,0-0.05,0-0.078a2.426,2.426,0,0,0-1.434-2.513l-0.031-.009a9.225,9.225,0,0,1-2.627-1.174,0.432,0.432,0,0,0-.595.1,0.414,0.414,0,0,0,.1.584,9.943,9.943,0,0,0,2.89,1.3,1.641,1.641,0,0,1,.842,1.74,0.627,0.627,0,0,0,0,.077,5.511,5.511,0,0,1-.067.96,12.848,12.848,0,0,1-11.162,0,5.228,5.228,0,0,1-.067-0.959c0-.025,0-0.051,0-0.078a1.638,1.638,0,0,1,.841-1.74,10.017,10.017,0,0,0,2.89-1.3,0.414,0.414,0,0,0,.1-0.584,0.432,0.432,0,0,0-.6-0.1,9.07,9.07,0,0,1-2.626,1.174l-0.032.01a2.43,2.43,0,0,0-1.434,2.513,0.661,0.661,0,0,1,0,.078v0.009a4.706,4.706,0,0,0,.161,1.407,0.4,0.4,0,0,0,.165.2,13.594,13.594,0,0,0,12.356,0,0.419,0.419,0,0,0,.164-0.2A4.889,4.889,0,0,0,596.28,341.915Z" transform="translate(-583.281 -330)"/>
</svg>
