<?xml version="1.0" encoding="utf-8"?>
<!-- Generator: Adobe Illustrator 24.0.2, SVG Export Plug-In . SVG Version: 6.00 Build 0)  -->
<svg version="1.1" id="Layer_1" xmlns="http://www.w3.org/2000/svg" xmlns:xlink="http://www.w3.org/1999/xlink" x="0px" y="0px"
	 viewBox="0 0 13 15" style="enable-background:new 0 0 13 15;" xml:space="preserve">
<style type="text/css">
	.st0{fill-rule:evenodd;clip-rule:evenodd;fill:#9D9D9D;}
</style>
<path id="user" class="st0" d="M6.4,8.1L6.4,8.1c0.9,0,1.8-0.3,2.3-0.9c0.8-1.1,1.2-2.5,1-3.9c0-1.1-0.5-2.2-1.5-2.8
	C7.7,0.2,7.1,0,6.5,0H6.5C5.9,0,5.3,0.1,4.8,0.4C3.8,1,3.2,2.1,3.2,3.3C3.1,4.6,3.4,6,4.2,7.1C4.8,7.8,5.6,8.1,6.4,8.1z M4.1,3.3
	C4.1,3.3,4.1,3.3,4.1,3.3C4,2,4.9,0.9,6.2,0.8c0.1,0,0.2,0,0.3,0h0C7.8,0.8,8.9,1.8,8.9,3c0,0.1,0,0.2,0,0.3c0,0,0,0,0,0
	C9,4.5,8.8,5.6,8.1,6.6C7.7,7,7.1,7.3,6.5,7.2h0C5.9,7.3,5.3,7,4.8,6.6C4.2,5.6,3.9,4.5,4.1,3.3z M13,11.9L13,11.9
	C13,11.9,13,11.9,13,11.9c0.1-1.1-0.5-2.2-1.4-2.6l0,0c-0.9-0.3-1.8-0.6-2.6-1.2C8.7,8,8.5,8,8.3,8.2C8.2,8.4,8.2,8.7,8.4,8.8
	c0,0,0,0,0,0c0.9,0.6,1.9,1,2.9,1.3c0.6,0.3,1,1,0.8,1.7c0,0,0,0.1,0,0.1c0,0.3,0,0.6-0.1,1c-3.5,1.7-7.6,1.7-11.2,0
	c-0.1-0.3-0.1-0.6-0.1-1c0,0,0-0.1,0-0.1c-0.1-0.7,0.2-1.4,0.8-1.7c1-0.3,2-0.7,2.9-1.3c0.2-0.1,0.2-0.4,0.1-0.6c0,0,0,0,0,0
	C4.5,8,4.3,8,4.1,8.1C3.3,8.7,2.4,9.1,1.5,9.3l0,0c-1,0.4-1.6,1.5-1.4,2.5c0,0,0,0.1,0,0.1v0c0,0.5,0,0.9,0.2,1.4
	c0,0.1,0.1,0.2,0.2,0.2c3.9,2,8.5,2,12.4,0c0.1,0,0.1-0.1,0.2-0.2C13,12.9,13,12.4,13,11.9z"/>
</svg>
